<mxfile host="app.diagrams.net" modified="2023-02-27T10:28:03.267Z" agent="5.0 (Windows NT 10.0; Win64; x64) AppleWebKit/537.36 (KHTML, like Gecko) Chrome/110.0.0.0 Safari/537.36 Edg/110.0.1587.56" etag="SGRoNPb8kaeOgzNT1uGR" version="20.8.23" type="github">
  <diagram name="Page-1" id="rax0ZLaKKymqmCFbMecq">
    <mxGraphModel dx="1972" dy="1129" grid="1" gridSize="10" guides="1" tooltips="1" connect="1" arrows="1" fold="1" page="1" pageScale="1" pageWidth="850" pageHeight="1100" math="0" shadow="0">
      <root>
        <mxCell id="0" />
        <mxCell id="1" parent="0" />
        <mxCell id="DFvB44AKqUmapCnJZ86H-2" style="edgeStyle=orthogonalEdgeStyle;rounded=0;orthogonalLoop=1;jettySize=auto;html=1;exitX=1;exitY=0.5;exitDx=0;exitDy=0;" edge="1" parent="1" source="DFvB44AKqUmapCnJZ86H-1">
          <mxGeometry relative="1" as="geometry">
            <mxPoint x="230" y="500" as="targetPoint" />
          </mxGeometry>
        </mxCell>
        <mxCell id="DFvB44AKqUmapCnJZ86H-1" value="&lt;font style=&quot;font-size: 14px;&quot;&gt;Idea&lt;/font&gt;" style="rounded=0;whiteSpace=wrap;html=1;" vertex="1" parent="1">
          <mxGeometry x="30" y="470" width="120" height="60" as="geometry" />
        </mxCell>
        <mxCell id="DFvB44AKqUmapCnJZ86H-10" value="Description" style="swimlane;fontStyle=0;childLayout=stackLayout;horizontal=1;startSize=30;horizontalStack=0;resizeParent=1;resizeParentMax=0;resizeLast=0;collapsible=1;marginBottom=0;whiteSpace=wrap;html=1;fontSize=14;" vertex="1" parent="1">
          <mxGeometry x="230" y="425" width="140" height="150" as="geometry" />
        </mxCell>
        <mxCell id="DFvB44AKqUmapCnJZ86H-11" value="Data" style="text;strokeColor=none;fillColor=none;align=left;verticalAlign=middle;spacingLeft=4;spacingRight=4;overflow=hidden;points=[[0,0.5],[1,0.5]];portConstraint=eastwest;rotatable=0;whiteSpace=wrap;html=1;fontSize=14;" vertex="1" parent="DFvB44AKqUmapCnJZ86H-10">
          <mxGeometry y="30" width="140" height="30" as="geometry" />
        </mxCell>
        <mxCell id="DFvB44AKqUmapCnJZ86H-15" value="Signal" style="text;strokeColor=none;fillColor=none;align=left;verticalAlign=middle;spacingLeft=4;spacingRight=4;overflow=hidden;points=[[0,0.5],[1,0.5]];portConstraint=eastwest;rotatable=0;whiteSpace=wrap;html=1;fontSize=14;" vertex="1" parent="DFvB44AKqUmapCnJZ86H-10">
          <mxGeometry y="60" width="140" height="30" as="geometry" />
        </mxCell>
        <mxCell id="DFvB44AKqUmapCnJZ86H-12" value="Entry" style="text;strokeColor=none;fillColor=none;align=left;verticalAlign=middle;spacingLeft=4;spacingRight=4;overflow=hidden;points=[[0,0.5],[1,0.5]];portConstraint=eastwest;rotatable=0;whiteSpace=wrap;html=1;fontSize=14;" vertex="1" parent="DFvB44AKqUmapCnJZ86H-10">
          <mxGeometry y="90" width="140" height="30" as="geometry" />
        </mxCell>
        <mxCell id="DFvB44AKqUmapCnJZ86H-13" value="Exit" style="text;strokeColor=none;fillColor=none;align=left;verticalAlign=middle;spacingLeft=4;spacingRight=4;overflow=hidden;points=[[0,0.5],[1,0.5]];portConstraint=eastwest;rotatable=0;whiteSpace=wrap;html=1;fontSize=14;" vertex="1" parent="DFvB44AKqUmapCnJZ86H-10">
          <mxGeometry y="120" width="140" height="30" as="geometry" />
        </mxCell>
        <mxCell id="DFvB44AKqUmapCnJZ86H-16" style="edgeStyle=orthogonalEdgeStyle;rounded=0;orthogonalLoop=1;jettySize=auto;html=1;exitX=1;exitY=0.5;exitDx=0;exitDy=0;entryX=0;entryY=0.5;entryDx=0;entryDy=0;fontSize=14;" edge="1" parent="1" source="DFvB44AKqUmapCnJZ86H-15" target="DFvB44AKqUmapCnJZ86H-7">
          <mxGeometry relative="1" as="geometry" />
        </mxCell>
        <mxCell id="DFvB44AKqUmapCnJZ86H-4" value="" style="swimlane;startSize=0;" vertex="1" parent="1">
          <mxGeometry x="480" y="340" width="490" height="320" as="geometry" />
        </mxCell>
        <mxCell id="DFvB44AKqUmapCnJZ86H-18" style="edgeStyle=orthogonalEdgeStyle;rounded=0;orthogonalLoop=1;jettySize=auto;html=1;exitX=1;exitY=0.5;exitDx=0;exitDy=0;entryX=0;entryY=0.5;entryDx=0;entryDy=0;fontSize=14;" edge="1" parent="DFvB44AKqUmapCnJZ86H-4" source="DFvB44AKqUmapCnJZ86H-7" target="DFvB44AKqUmapCnJZ86H-17">
          <mxGeometry relative="1" as="geometry" />
        </mxCell>
        <mxCell id="DFvB44AKqUmapCnJZ86H-7" value="" style="triangle;whiteSpace=wrap;html=1;fontSize=14;" vertex="1" parent="DFvB44AKqUmapCnJZ86H-4">
          <mxGeometry x="-21.052631578947373" y="120" width="63.157894736842096" height="80" as="geometry" />
        </mxCell>
        <mxCell id="DFvB44AKqUmapCnJZ86H-20" style="edgeStyle=orthogonalEdgeStyle;rounded=0;orthogonalLoop=1;jettySize=auto;html=1;exitX=0.5;exitY=1;exitDx=0;exitDy=0;entryX=0.5;entryY=0;entryDx=0;entryDy=0;fontSize=14;" edge="1" parent="DFvB44AKqUmapCnJZ86H-4" source="DFvB44AKqUmapCnJZ86H-17" target="DFvB44AKqUmapCnJZ86H-19">
          <mxGeometry relative="1" as="geometry" />
        </mxCell>
        <mxCell id="DFvB44AKqUmapCnJZ86H-27" style="edgeStyle=orthogonalEdgeStyle;rounded=0;orthogonalLoop=1;jettySize=auto;html=1;exitX=1;exitY=0.5;exitDx=0;exitDy=0;entryX=0;entryY=0.5;entryDx=0;entryDy=0;fontSize=14;" edge="1" parent="DFvB44AKqUmapCnJZ86H-4" source="DFvB44AKqUmapCnJZ86H-17" target="DFvB44AKqUmapCnJZ86H-26">
          <mxGeometry relative="1" as="geometry" />
        </mxCell>
        <mxCell id="DFvB44AKqUmapCnJZ86H-17" value="DataHandler" style="rounded=0;whiteSpace=wrap;html=1;fontSize=14;" vertex="1" parent="DFvB44AKqUmapCnJZ86H-4">
          <mxGeometry x="105.26315789473682" y="20" width="126.31578947368419" height="60" as="geometry" />
        </mxCell>
        <mxCell id="DFvB44AKqUmapCnJZ86H-22" style="edgeStyle=orthogonalEdgeStyle;rounded=0;orthogonalLoop=1;jettySize=auto;html=1;exitX=0.5;exitY=1;exitDx=0;exitDy=0;entryX=0.5;entryY=0;entryDx=0;entryDy=0;fontSize=14;" edge="1" parent="DFvB44AKqUmapCnJZ86H-4" source="DFvB44AKqUmapCnJZ86H-19" target="DFvB44AKqUmapCnJZ86H-21">
          <mxGeometry relative="1" as="geometry" />
        </mxCell>
        <mxCell id="DFvB44AKqUmapCnJZ86H-19" value="SignalProcessor" style="rounded=0;whiteSpace=wrap;html=1;fontSize=14;" vertex="1" parent="DFvB44AKqUmapCnJZ86H-4">
          <mxGeometry x="105.26315789473682" y="120" width="126.31578947368419" height="60" as="geometry" />
        </mxCell>
        <mxCell id="DFvB44AKqUmapCnJZ86H-24" style="edgeStyle=orthogonalEdgeStyle;rounded=0;orthogonalLoop=1;jettySize=auto;html=1;exitX=1;exitY=0.5;exitDx=0;exitDy=0;entryX=0.5;entryY=1;entryDx=0;entryDy=0;fontSize=14;" edge="1" parent="DFvB44AKqUmapCnJZ86H-4" source="DFvB44AKqUmapCnJZ86H-21" target="DFvB44AKqUmapCnJZ86H-23">
          <mxGeometry relative="1" as="geometry" />
        </mxCell>
        <mxCell id="DFvB44AKqUmapCnJZ86H-21" value="PositionHandling" style="rounded=0;whiteSpace=wrap;html=1;fontSize=14;" vertex="1" parent="DFvB44AKqUmapCnJZ86H-4">
          <mxGeometry x="105.26315789473682" y="220" width="126.31578947368419" height="60" as="geometry" />
        </mxCell>
        <mxCell id="DFvB44AKqUmapCnJZ86H-23" value="Report" style="rounded=0;whiteSpace=wrap;html=1;fontSize=14;" vertex="1" parent="DFvB44AKqUmapCnJZ86H-4">
          <mxGeometry x="280" y="120" width="120" height="60" as="geometry" />
        </mxCell>
        <mxCell id="DFvB44AKqUmapCnJZ86H-8" value="" style="triangle;whiteSpace=wrap;html=1;fontSize=14;" vertex="1" parent="DFvB44AKqUmapCnJZ86H-4">
          <mxGeometry x="460.00052631578956" y="110" width="61.578947368421055" height="80" as="geometry" />
        </mxCell>
        <mxCell id="DFvB44AKqUmapCnJZ86H-25" style="edgeStyle=orthogonalEdgeStyle;rounded=0;orthogonalLoop=1;jettySize=auto;html=1;exitX=1;exitY=0.5;exitDx=0;exitDy=0;entryX=0;entryY=0.5;entryDx=0;entryDy=0;fontSize=14;" edge="1" parent="DFvB44AKqUmapCnJZ86H-4" source="DFvB44AKqUmapCnJZ86H-23" target="DFvB44AKqUmapCnJZ86H-8">
          <mxGeometry relative="1" as="geometry" />
        </mxCell>
        <mxCell id="DFvB44AKqUmapCnJZ86H-26" value="DataProvider" style="rounded=0;whiteSpace=wrap;html=1;fontSize=14;" vertex="1" parent="DFvB44AKqUmapCnJZ86H-4">
          <mxGeometry x="280" y="20" width="120" height="60" as="geometry" />
        </mxCell>
        <mxCell id="DFvB44AKqUmapCnJZ86H-5" value="Backtester" style="text;html=1;align=center;verticalAlign=middle;resizable=0;points=[];autosize=1;strokeColor=none;fillColor=none;fontSize=14;" vertex="1" parent="1">
          <mxGeometry x="480" y="310" width="90" height="30" as="geometry" />
        </mxCell>
        <mxCell id="DFvB44AKqUmapCnJZ86H-28" value="ReportEvaluator" style="rounded=0;whiteSpace=wrap;html=1;fontSize=14;" vertex="1" parent="1">
          <mxGeometry x="1070" y="460" width="120" height="60" as="geometry" />
        </mxCell>
        <mxCell id="DFvB44AKqUmapCnJZ86H-29" style="edgeStyle=orthogonalEdgeStyle;rounded=0;orthogonalLoop=1;jettySize=auto;html=1;exitX=1;exitY=0.5;exitDx=0;exitDy=0;entryX=0;entryY=0.5;entryDx=0;entryDy=0;fontSize=14;" edge="1" parent="1" source="DFvB44AKqUmapCnJZ86H-8" target="DFvB44AKqUmapCnJZ86H-28">
          <mxGeometry relative="1" as="geometry" />
        </mxCell>
      </root>
    </mxGraphModel>
  </diagram>
</mxfile>
